<svg width="30" height="30" viewBox="0 0 30 30" xmlns="http://www.w3.org/2000/svg"><title>instagram-icon</title><g fill="#FAFAFA"><path d="M14.895 17.878a2.987 2.987 0 0 0 2.983-2.982 2.97 2.97 0 0 0-.564-1.739 2.978 2.978 0 0 0-2.417-1.243 2.98 2.98 0 0 0-2.419 1.243 2.968 2.968 0 0 0-.564 1.738 2.984 2.984 0 0 0 2.981 2.983zm6.512-6.63V8.376l-.374.001-2.498.008.01 2.872z"/><path d="M14.896 0C6.682 0 0 6.682 0 14.896 0 23.108 6.682 29.79 14.896 29.79c8.212 0 14.895-6.683 14.895-14.895C29.791 6.682 23.11 0 14.896 0zm8.471 13.157v6.936a3.278 3.278 0 0 1-3.274 3.275H9.698a3.277 3.277 0 0 1-3.274-3.275V9.7a3.277 3.277 0 0 1 3.274-3.274h10.394A3.278 3.278 0 0 1 23.367 9.7v3.458z"/><path d="M19.53 14.896a4.64 4.64 0 0 1-4.634 4.633 4.639 4.639 0 0 1-4.634-4.633c0-.615.123-1.202.341-1.739H8.074v6.936c0 .897.728 1.623 1.624 1.623h10.394c.894 0 1.623-.726 1.623-1.623v-6.936h-2.53a4.57 4.57 0 0 1 .344 1.739z"/></g></svg>