<svg width="24" height="34" viewBox="0 0 24 34" xmlns="http://www.w3.org/2000/svg"><title>Group 2</title><g fill="none"><path d="M11.709 0C5.243 0 0 5.243 0 11.709c0 .495.04.977.1 1.456 1 9.146 10.849 19.687 10.849 19.687.175.197.344.318.507.405l.009.005.327.104.328-.104.009-.005c.163-.087.332-.215.507-.405 0 0 9.706-10.56 10.684-19.708.058-.472.098-.95.098-1.437C23.416 5.243 18.175 0 11.708 0zm-.003 19.237c-4.153 0-7.532-3.38-7.532-7.531 0-4.153 3.38-7.532 7.532-7.532s7.529 3.38 7.529 7.532-3.377 7.531-7.53 7.531z" fill="#2371F4"/><path d="M11.632 21.264c-5.31 0-9.632-4.32-9.632-9.632C2 6.322 6.321 2 11.632 2s9.632 4.321 9.632 9.632-4.32 9.632-9.632 9.632z" fill="#37474F"/><path d="M16.677 11.632a5.045 5.045 0 1 0-10.09 0 5.045 5.045 0 1 0 10.09 0z" fill="#FFF"/><path d="M11.632 6.736a5.032 5.032 0 0 0-4.896 4.896h4.896V6.736zm0 9.794a5.033 5.033 0 0 0 4.896-4.898h-4.896v4.897z" fill="#448AFF"/><path d="M7.572 6.428a.687.687 0 0 0-.397-.538.684.684 0 0 0-.671.075l-.046.037a.598.598 0 0 0-.15-.623.608.608 0 0 0-.892.055l-.116.145-.605.755-.52.649-.033.044.023.018.202.162c.254.204.507.408.762.61.251.203.503.404.755.605a18.815 18.815 0 0 0 .212.169l.038-.048.519-.648.621-.776c.107-.132.225-.26.276-.425a.677.677 0 0 0 .022-.266zm-2.228.729l-.314-.252-.12-.095a.923.923 0 0 1 .044-.056l.585-.731c.051-.064.098-.133.177-.165a.28.28 0 0 1 .313.07.287.287 0 0 1 .063.255c-.023.081-.08.14-.131.204l-.308.385-.31.385zm1.546-.3l-.198.248-.546.681c0 .001-.005.009-.007.008l-.027-.023a42.076 42.076 0 0 1-.406-.325l.494-.618.241-.301c.058-.071.13-.123.226-.126a.283.283 0 0 1 .263.166.278.278 0 0 1-.04.29zm10.767-1.481l-.463-.43-1.506 1.979.463.43 1.652-.757-1.1 1.446.318.546 2.26-1.037-.319-.547-1.304.598.927-1.217-.406-.506-1.39.638zm-6.762-1.59l.529 1.67h.417l.527-1.67.056 1.67.584.093-.083-2.505-.75-.094-.542 1.764-.543-1.764-.75.094-.084 2.505.584-.093z" fill="#CFD8DC"/><path d="M11.632 17.136a5.51 5.51 0 0 1-5.504-5.504 5.51 5.51 0 0 1 5.504-5.504 5.51 5.51 0 0 1 5.504 5.504 5.51 5.51 0 0 1-5.504 5.504zm0-10.09a4.592 4.592 0 0 0-4.587 4.586 4.592 4.592 0 0 0 4.587 4.587 4.592 4.592 0 0 0 4.587-4.587 4.592 4.592 0 0 0-4.587-4.587z" fill="#FFF"/></g></svg>