<svg width="30" height="30" viewBox="0 0 30 30" xmlns="http://www.w3.org/2000/svg"><title>twitter-icon</title><path d="M14.981 0C6.708 0 0 6.708 0 14.981c0 8.274 6.708 14.982 14.981 14.982 8.274 0 14.982-6.708 14.982-14.982C29.963 6.706 23.255 0 14.98 0zm7.453 11.618l.012.477c0 4.877-3.71 10.495-10.495 10.495-2.082 0-4.02-.61-5.653-1.657a7.401 7.401 0 0 0 5.46-1.526 3.694 3.694 0 0 1-3.445-2.562c.226.043.455.063.694.063.338 0 .663-.043.972-.127a3.692 3.692 0 0 1-2.958-3.616v-.047a3.683 3.683 0 0 0 1.67.463 3.688 3.688 0 0 1-1.64-3.07c0-.676.181-1.309.498-1.854a10.468 10.468 0 0 0 7.603 3.854 3.689 3.689 0 0 1 6.287-3.363 7.47 7.47 0 0 0 2.342-.895 3.698 3.698 0 0 1-1.622 2.041 7.394 7.394 0 0 0 2.118-.58 7.456 7.456 0 0 1-1.843 1.904z" fill="#FAFAFA"/></svg>